<svg width="17" height="17" viewBox="0 0 17 17" fill="none" xmlns="http://www.w3.org/2000/svg">
<g clip-path="url(#clip0_12_142)">
<path d="M11.3333 5.66663V3.68329C11.3333 2.88988 11.3333 2.49318 11.1789 2.19014C11.0431 1.92358 10.8263 1.70685 10.5598 1.57103C10.2567 1.41663 9.86003 1.41663 9.06663 1.41663H3.68329C2.88988 1.41663 2.49318 1.41663 2.19014 1.57103C1.92358 1.70685 1.70685 1.92358 1.57103 2.19014C1.41663 2.49318 1.41663 2.88988 1.41663 3.68329V9.06663C1.41663 9.86003 1.41663 10.2567 1.57103 10.5598C1.70685 10.8263 1.92358 11.0431 2.19014 11.1789C2.49318 11.3333 2.88988 11.3333 3.68329 11.3333H5.66663M7.93329 15.5833H13.3166C14.11 15.5833 14.5067 15.5833 14.8098 15.4289C15.0763 15.2931 15.2931 15.0763 15.4289 14.8098C15.5833 14.5067 15.5833 14.11 15.5833 13.3166V7.93329C15.5833 7.13988 15.5833 6.74318 15.4289 6.44014C15.2931 6.17358 15.0763 5.95685 14.8098 5.82103C14.5067 5.66663 14.11 5.66663 13.3166 5.66663H7.93329C7.13988 5.66663 6.74318 5.66663 6.44014 5.82103C6.17358 5.95685 5.95685 6.17358 5.82103 6.44014C5.66663 6.74318 5.66663 7.13988 5.66663 7.93329V13.3166C5.66663 14.11 5.66663 14.5067 5.82103 14.8098C5.95685 15.0763 6.17358 15.2931 6.44014 15.4289C6.74318 15.5833 7.13988 15.5833 7.93329 15.5833Z" stroke="white" stroke-opacity="0.4" stroke-width="1.5" stroke-linecap="round" stroke-linejoin="round"/>
</g>
<defs>
<clipPath id="clip0_12_142">
<rect width="17" height="17" fill="white"/>
</clipPath>
</defs>
</svg>
