<svg enable-background="new 0 0 1024 672" viewBox="0 0 1024 672" xmlns="http://www.w3.org/2000/svg"><path d="m511.599976 516.8255c-28.389283 2.275574-56.321839 3.2724-84.276307.350281-44.892822-4.692505-86.919281-16.92865-122.435791-46.353515-11.476471-9.508026-22.090332-19.995179-30.295013-32.403046-18.369171-27.779724-36.881378-55.515503-51.334976-85.652741-2.951264-6.153686-5.448487-12.525726-8.418213-18.669891-8.736069-18.074432-21.623825-33.110412-35.270844-47.549835-20.725433-21.928864-44.123397-40.499268-70.090919-55.890472-5.567894-3.300156-10.570717-7.539994-15.967239-11.1474-4.058877-2.713257-6.641312-6.343445-8.323899-10.865128-2.636711-7.085754-.871376-12.348968 5.389656-16.851044 6.883492-4.949691 14.916512-6.263153 22.865074-8.096389 28.09655-6.480133 56.753655-9.371369 85.3014-12.559128 13.803146-1.541321 27.812668-2.613632 41.826004-2.493119 28.827209.24791 57.672912-.383041 86.482483.399262 78.360077 2.127869 155.478485 12.97496 230.838745 34.991867 57.804443 16.887924 112.662719 40.882538 165.441162 69.718796 50.429443 27.552856 97.90918 59.506408 142.42041 95.879883 6.308899 5.155517 13.190124 9.609832 19.79425 14.405456 1.146058.832276 2.838074 1.150574 3.030762 3.086029-1.921203 1.401367-3.414673-.197143-4.998901-.713989-39.964661-13.038544-75.575501-34.669403-111.185425-56.315186-10.249084-6.230041-20.618042-12.263-30.949219-18.357116-1.384704-.816773-2.720703-1.879303-4.328064-1.852692-1.283691 1.322174-.83667 2.712463-.814575 3.988953.957703 55.37677-24.112121 97.164245-68.157349 128.429992-30.02246 21.311554-64.100585 32.330353-100.685974 35.011567-67.07846 4.915863-126.866638-14.626526-178.782684-56.769196-37.789612-30.675659-58.284363-71.013123-61.166626-120.076538-1.418915-24.153351 1.577118-47.810455 5.865662-71.418137 1.322357-7.279342.338379-8.555587-6.775849-7.585296-23.106384 3.151428-45.947113 7.614166-68.408172 13.940887-3.447937.971207-6.00058 2.055008-5.040192 6.776489 6.469269 31.804123 10.632263 64.048325 18.170471 95.651627 7.798554 32.694763 19.157379 63.817383 40.457916 90.463562 22.823792 28.551697 52.772858 45.942657 87.691529 55.219055 35.763092 9.500733 72.229187 11.223755 109.044922 9.689026 37.022064-1.543365 73.634979-6.365906 110.108673-12.468658 35.974548-6.019257 71.638733-13.636109 107.301147-21.267212 29.300415-6.269837 58.546509-12.826081 88.247681-17.10141 20.000305-2.878937 40.121338-3.568909 60.251709-4.353913 1.906677-.07431 4.595642-.506897 4.733765 2.272736.137695 2.771362-2.584412 2.668976-4.480225 2.727203-41.053772 1.260498-80.083923 12.7771-119.285156 23.444397-68.963562 18.766114-138.1922 36.358521-209.091004 46.378571-11.371887 1.607178-22.827575 2.621399-34.700805 3.985412m-113.16156-117.778808c16.659027 14.16391 35.374359 24.926819 55.500183 33.282226 42.750702 17.748322 86.838379 23.987275 132.477539 14.203522 48.844909-10.470917 86.656555-36.469696 111.375671-80.518066 10.3125-18.376496 17.146607-38.293762 25.96521-57.324158 2.144043-4.626831 1.285767-6.608276-3.116089-8.723877-28.415222-13.656982-57.79364-24.921173-87.40686-35.618439-.993164-.358734-2.131409-1.181762-3.455506.063172.186707 1.47522.262391 3.125274.616761 4.713135 3.976013 17.814514.783569 34.819-6.448609 51.109405-22.545288 50.783173-87.539795 75.394714-139.79718 52.725159-33.329559-14.458557-53.606842-40.624939-64.65921-74.634278-2.31366-7.119354-3.232575-14.216705-1.67572-21.593383.38153-1.80774.391632-3.730103 2.43161-4.575989 2.035431-.844025 3.487274.355102 4.940765 1.524292 4.801239 3.862091 9.564697 7.773437 14.433289 11.548981 7.29718 5.658966 14.671173 11.218841 22.012512 16.820861.338837-.364563.677673-.729126 1.01651-1.093689-.627869-.225708-1.412384-.283508-1.860657-.701751-10.353241-9.659058-20.676178-19.350739-30.986389-29.055847-1.432587-1.348481-3.415405-2.65329-2.742248-4.93982.809509-2.749695 3.459564-2.154968 5.514526-2.227081 3.74649-.131531 7.500854-.037415 11.251953-.037415-3.516968-1.562439-7.141052-1.698974-10.776398-1.881714-2.247375-.113006-5.030059.431519-6.184814-2.191741-1.067352-2.424744 1.212585-3.906128 2.429169-5.610703.579681-.812225 1.271881-1.543137 1.882507-2.334503 7.7677-10.066208 15.529877-20.136704 23.293426-30.206131-3.068939 2.183822-5.824249 4.555755-8.354309 7.147537-6.982513 7.152878-13.856231 14.41182-20.809875 21.593124-1.246369 1.287156-2.549317 3.021943-4.648712 2.098542-2.081024-.915299-.915436-2.895722-.988434-4.456208-.165589-3.538147.57785-6.926834 1.4281-10.338226 1.466095-5.882507 2.727936-11.815918 4.071564-17.710846-1.10495-.393509-1.555572-.666275-2.025665-.705307-22.621857-1.87825-45.250183-1.757324-67.898956-.424408-4.067841.239395-5.500092 2.155319-5.90448 5.820557-.820923 7.439819-1.99173 14.843719-2.700959 22.292633-1.866394 19.602982-2.78125 39.292709-.052215 58.830978 5.217163 37.352204 22.555694 68.230866 51.85199 93.129456m112.306671-35.702576c3.540802-4.530395 3.090728-8.44281-1.069855-13.222381-8.453735-9.71167-20.15802-15.076386-30.126068-22.757721-3.659943-2.820374-7.379181-5.665589-12.118408-6.686737-7.328003-1.578919-16.411286 5.91455-15.344788 12.742004.403503 2.58313 1.863861 4.613739 3.397369 6.564453 11.69397 14.875549 28.246247 20.907105 45.843689 24.873932 2.863709.645508 5.982605.587158 9.418061-1.51355z"/></svg>